<?xml version="1.0" standalone="no"?>
<!DOCTYPE svg PUBLIC "-//W3C//DTD SVG 20010904//EN"
 "http://www.w3.org/TR/2001/REC-SVG-20010904/DTD/svg10.dtd">
<svg version="1.0" xmlns="http://www.w3.org/2000/svg"
 width="116.000000pt" height="116.000000pt" viewBox="0 0 116.000000 116.000000"
 preserveAspectRatio="xMidYMid meet">
<metadata>
Created by potrace 1.11, written by Peter Selinger 2001-2013
</metadata>
<g transform="translate(0.000000,116.000000) scale(0.100000,-0.100000)"
fill="#000000" stroke="none">
<path d="M494 1045 c-157 -29 -292 -140 -357 -290 -61 -142 -33 -345 63 -456
l30 -34 -28 45 c-93 147 -100 328 -16 470 107 183 313 267 518 210 75 -21 182
-75 190 -96 7 -18 21 -18 41 2 13 13 13 19 3 31 -34 42 -147 99 -233 119 -46
11 -154 10 -211 -1z"/>
<path d="M480 932 c-30 -10 -71 -26 -90 -36 -89 -48 -180 -188 -183 -281 -1
-24 -7 -47 -13 -49 -20 -8 4 -105 42 -175 69 -126 171 -194 306 -206 147 -12
296 61 372 184 25 41 54 135 51 168 -1 12 4 24 11 27 8 3 11 15 8 30 -2 15 -6
37 -8 49 -13 78 -108 207 -187 255 -82 50 -210 64 -309 34z"/>
<path d="M956 862 c16 -10 71 -121 83 -168 16 -60 19 -130 9 -182 -5 -26 -10
-52 -12 -58 -5 -27 -41 -104 -48 -104 -4 0 -8 -6 -8 -13 0 -22 -99 -114 -149
-139 -25 -13 -49 -27 -53 -33 -4 -5 -8 -7 -8 -3 0 4 -16 0 -35 -8 -72 -30
-224 -24 -310 12 -19 8 -37 14 -40 14 -3 0 -30 18 -61 41 -45 33 -58 38 -70
29 -23 -20 -16 -38 29 -68 174 -120 388 -130 565 -26 96 57 185 173 214 281
18 64 14 202 -6 263 -21 65 -83 170 -99 170 -9 0 -9 -2 -1 -8z"/>
</g>
</svg>
